<svg width="32" height="29" viewBox="0 0 32 29" fill="none" xmlns="http://www.w3.org/2000/svg">
<path d="M24.9047 17.9663C24.2657 17.3465 23.5038 17.0175 22.6927 17.0175C21.8898 17.0175 21.1115 17.3388 20.4479 17.9586L18.3752 19.8869C18.2031 19.8027 18.0311 19.7185 17.8672 19.642C17.6296 19.5349 17.4084 19.4278 17.22 19.3206C15.2783 18.1729 13.5169 16.6731 11.8292 14.7296C11.01 13.7655 10.4611 12.9468 10.0596 12.1204C10.6003 11.6613 11.0919 11.1869 11.5834 10.7278C11.7637 10.5594 11.9521 10.3758 12.1324 10.2074C13.5087 8.92196 13.5087 7.25388 12.1324 5.96839L10.3464 4.30032C10.1415 4.10903 9.93672 3.91773 9.7401 3.71879C9.34685 3.3362 8.93721 2.94597 8.51119 2.57868C7.86397 1.9895 7.10206 1.67578 6.30737 1.67578C5.50448 1.67578 4.73437 1.9895 4.07896 2.57868L4.06257 2.59399L1.83417 4.69056C0.990322 5.47103 0.515147 6.4275 0.408642 7.537C0.252981 9.3275 0.818275 10.9879 1.24429 12.0821C2.30934 14.7602 3.89053 17.2394 6.25821 19.8945C9.12564 23.0929 12.583 25.6257 16.5318 27.4085C18.0393 28.0742 20.0547 28.8623 22.2995 29.0001C22.4387 29.0077 22.578 29.0154 22.7091 29.0154C24.2247 29.0154 25.4946 28.5103 26.4941 27.5003C26.5023 27.485 26.5105 27.485 26.5187 27.4697C26.8628 27.0871 27.256 26.7352 27.6657 26.3602C27.9442 26.1077 28.2391 25.8476 28.5177 25.5721C29.1649 24.9447 29.509 24.2101 29.509 23.4526C29.509 22.695 29.1649 21.9681 28.5013 21.356L24.9047 17.9663ZM27.2478 24.409C27.2396 24.409 27.2396 24.4167 27.2478 24.409C26.9939 24.6692 26.7317 24.8987 26.445 25.1589C26.0189 25.5415 25.5847 25.9394 25.1833 26.3832C24.5197 27.0412 23.7414 27.3549 22.7173 27.3549C22.619 27.3549 22.5125 27.3549 22.4142 27.3473C20.4643 27.2325 18.6619 26.5209 17.3019 25.9164C13.5907 24.2407 10.3382 21.861 7.62639 18.8386C5.39798 16.3288 3.90691 14.0027 2.9156 11.5006C2.30934 9.97789 2.07995 8.79188 2.17826 7.66707C2.2438 6.94781 2.53874 6.35863 3.07945 5.84597L5.31605 3.75705C5.63557 3.47393 5.97966 3.3209 6.31556 3.3209C6.72519 3.3209 7.06109 3.55045 7.2741 3.7494L7.29049 3.7647C7.69193 4.11668 8.06879 4.47631 8.47023 4.85889C8.67505 5.05784 8.87987 5.24913 9.09287 5.45573L10.8789 7.1238C11.5753 7.7742 11.5753 8.37103 10.8789 9.02143C10.6904 9.19742 10.502 9.37341 10.3136 9.5494C9.76467 10.0774 9.24034 10.5671 8.66686 11.0415C8.65047 11.0568 8.64228 11.0568 8.63408 11.0721C8.06879 11.6001 8.17529 12.1127 8.28999 12.4647L8.30638 12.5183C8.77336 13.5742 9.42877 14.5613 10.4201 15.7473L10.4283 15.7549C12.2389 17.8362 14.1478 19.4584 16.2451 20.6979C16.5154 20.8586 16.7858 20.9887 17.048 21.1111C17.2855 21.2183 17.5067 21.3254 17.6952 21.4325C17.7198 21.4478 17.7443 21.4631 17.7771 21.4784C17.9983 21.5855 18.2113 21.6315 18.4243 21.6315C18.965 21.6315 19.3091 21.3101 19.4238 21.2106L21.6686 19.114C21.8898 18.9074 22.2421 18.6549 22.6599 18.6549C23.0696 18.6549 23.3973 18.8921 23.6021 19.0987L27.2233 22.4808C27.9196 23.1235 27.9196 23.7663 27.2478 24.409Z" fill="#7F7F7F"/>
<path d="M17.1462 6.90181C18.8667 7.16962 20.4233 7.92714 21.6686 9.0902C22.9139 10.2533 23.7168 11.7071 24.0117 13.3139C24.0854 13.7195 24.4541 14.0026 24.8801 14.0026C24.9293 14.0026 24.9784 13.995 25.0276 13.9873C25.511 13.9108 25.8305 13.4823 25.7567 13.0308C25.4044 11.0873 24.4213 9.31975 22.9221 7.91948C21.4228 6.51922 19.5303 5.60101 17.4493 5.27199C16.966 5.19547 16.5154 5.50154 16.4253 5.94534C16.3433 6.38914 16.6546 6.82529 17.1462 6.90181Z" fill="#7F7F7F"/>
<path d="M31.3769 12.7936C30.7952 9.59522 29.1813 6.68757 26.7071 4.37675C24.2329 2.06593 21.1197 0.558547 17.6951 0.015275C17.22 -0.0612421 16.7612 0.244826 16.6792 0.688626C16.5973 1.14008 16.925 1.56092 17.4084 1.64509C20.4643 2.12715 23.2498 3.4815 25.4618 5.54746C27.6738 7.61343 29.1157 10.215 29.6401 13.0691C29.7138 13.4746 30.0825 13.7578 30.5085 13.7578C30.5577 13.7578 30.6068 13.7501 30.656 13.7425C31.1393 13.6659 31.467 13.2374 31.3769 12.7936Z" fill="#7F7F7F"/>
</svg>
