<svg width="594" height="479" viewBox="0 0 594 479" fill="none" xmlns="http://www.w3.org/2000/svg">
<path d="M535.493 351.3C535.493 376.598 514.838 397.236 489.519 397.236H272.974C247.655 397.236 227 376.598 227 351.3V134.936C227 109.638 247.655 89 272.974 89H489.519C514.838 89 535.493 109.638 535.493 134.936V351.3Z" stroke="white"/>
<path d="M135.924 37.9484C135.924 17.6434 152.581 1 172.903 1H347.472C367.793 1 384.451 17.6434 384.451 37.9484V212.371C384.451 232.676 367.793 249.32 347.472 249.32H172.903C152.581 249.32 135.924 232.676 135.924 212.371V37.9484V37.9484Z" stroke="white"/>
<path d="M332.147 428.736C332.147 456.031 310.159 478 282.841 478H50.3056C22.9876 478 1 456.031 1 428.736V196.394C1 169.098 22.9876 147.129 50.3056 147.129H282.841C310.159 147.129 332.147 169.098 332.147 196.394V428.736Z" stroke="white" stroke-width="1.47"/>
<path d="M593 430.733C593 443.049 583.006 453.035 570.679 453.035H464.406C452.079 453.035 441.752 443.049 441.752 430.733V324.548C441.752 312.232 451.746 301.913 464.406 301.913H570.679C583.006 301.913 593 311.899 593 324.548V430.733Z" stroke="white" stroke-width="1.1979"/>
<path d="M529.702 82.8856C525.038 82.8856 521.041 78.8911 521.041 74.231V32.9554C521.041 28.2952 525.038 24.3008 529.702 24.3008H571.012C575.676 24.3008 579.674 28.2952 579.674 32.9554V74.231C579.674 78.8911 575.676 82.8856 571.012 82.8856H529.702Z" fill="white" stroke="white"/>
<path d="M161.909 455.698C157.245 455.698 153.248 451.703 153.248 447.043V405.768C153.248 401.107 157.245 397.113 161.909 397.113H203.22C208.217 397.113 211.881 401.107 211.881 405.768V447.043C211.881 451.703 207.884 455.698 203.22 455.698H161.909Z" fill="white" stroke="white"/>
</svg>
